<svg xmlns="http://www.w3.org/2000/svg" width="42" height="42" viewBox="0 0 42 42">
    <g fill="none" fill-rule="evenodd">
        <g>
            <g transform="translate(-81 -2164) translate(81 2164)">
                <circle cx="21" cy="21" r="21" fill="#383A43"/>
                <path fill="#FF9300" d="M21.33 25.495l-4.462-2.59c.288-.575.465-1.216.465-1.905 0-.426-.08-.828-.195-1.216l4.642-2.693c.76.837 1.842 1.37 3.053 1.37 2.302 0 4.167-1.893 4.167-4.23C29 11.894 27.135 10 24.833 10c-2.301 0-4.166 1.894-4.166 4.23 0 .426.08.83.195 1.218L16.22 18.14c-.76-.837-1.842-1.37-3.053-1.37C10.865 16.77 9 18.662 9 21c0 2.337 1.865 4.23 4.167 4.23.95 0 1.816-.334 2.516-.878l-.016.033 5.045 2.927c-.016.153-.045.3-.045.457 0 2.337 1.865 4.231 4.166 4.231C27.135 32 29 30.106 29 27.77c0-2.338-1.865-4.232-4.167-4.232-1.475 0-2.762.783-3.503 1.957z"/>
            </g>
        </g>
    </g>
</svg>
